<svg width="24" height="24" viewBox="0 0 24 24" fill="none" xmlns="http://www.w3.org/2000/svg">
<path d="M2.00003 5.4127V3C2.00003 2.44772 2.44775 2 3.00003 2H18.1429C18.6952 2 19.1429 2.44772 19.1429 3V5.4127M2.00003 5.4127L7.98141 11.4698C8.16623 11.657 8.26987 11.9094 8.26987 12.1724V17.4524C8.26987 17.7671 8.41807 18.0635 8.66987 18.2524L11.1143 20.0857C11.7736 20.5801 12.7143 20.1098 12.7143 19.2857V16.5238M2.00003 5.4127H19.1429M19.1429 5.4127L13.0116 11.4683C12.8214 11.6562 12.7143 11.9124 12.7143 12.1798V14.1429" stroke="#454A52" stroke-width="0.6"/>
<path d="M15.9683 18.0317L18.9841 21.9999L21.9206 18.0317H15.9683Z" fill="#454A52" stroke="#454A52" stroke-width="0.6"/>
</svg>
