<svg width="24" height="24" viewBox="0 0 24 24" fill="none" xmlns="http://www.w3.org/2000/svg">
<path d="M7.1204 13.2172C8.59018 11.8892 10.06 10.5612 11.5427 9.23328C11.4137 9.23328 11.2848 9.23328 11.1559 9.23328C11.6587 9.77478 12.1744 10.3163 12.6772 10.8707C12.7803 10.9738 12.9608 10.9738 13.064 10.8707C14.5724 9.32353 16.0809 7.78928 17.5765 6.24214C17.8214 5.98428 17.4347 5.5975 17.1897 5.85535C15.6812 7.4025 14.1728 8.93674 12.6772 10.4839C12.8061 10.4839 12.9351 10.4839 13.064 10.4839C12.5612 9.94238 12.0455 9.40089 11.5427 8.8465C11.4395 8.73046 11.259 8.74335 11.1559 8.8465C9.68608 10.1745 8.21629 11.5024 6.73361 12.8304C6.46286 13.0625 6.84965 13.4492 7.1204 13.2172Z" fill="#828B99"/>
<path d="M17.9483 8.00163C17.9226 7.30542 17.9097 6.6092 17.8839 5.91299C17.8839 5.77117 17.7678 5.62934 17.6131 5.64224C16.9169 5.66802 16.2207 5.68091 15.5245 5.7067C15.1764 5.71959 15.1635 6.27399 15.5245 6.2611C16.2207 6.23531 16.9169 6.22242 17.6131 6.19663C17.5229 6.10638 17.4326 6.01613 17.3424 5.92588C17.3682 6.62209 17.3811 7.31831 17.4069 8.01452C17.4069 8.34974 17.9612 8.34974 17.9483 8.00163Z" fill="#828B99"/>
<path d="M21.6414 16.4617C19.4812 16.4617 17.3032 16.4617 15.143 16.4617C11.6901 16.4617 8.21957 16.4617 4.76671 16.4617C3.9699 16.4617 3.15538 16.4617 2.35857 16.4617C1.88048 16.4617 1.88048 17.0161 2.35857 17.0161C4.51882 17.0161 6.69676 17.0161 8.85701 17.0161C12.3099 17.0161 15.7805 17.0161 19.2333 17.0161C20.0301 17.0161 20.8446 17.0161 21.6414 17.0161C22.1195 17.0161 22.1195 16.4617 21.6414 16.4617Z" fill="#828B99"/>
<path d="M20.7717 2.21509C20.7717 3.85248 20.7717 5.47698 20.7717 7.11437C20.7717 9.71873 20.7717 12.3231 20.7717 14.9274C20.7717 15.5334 20.7717 16.1265 20.7717 16.7324C20.7717 17.0806 21.3261 17.0806 21.3261 16.7324C21.3261 15.0951 21.3261 13.4706 21.3261 11.8332C21.3261 9.22881 21.3261 6.62444 21.3261 4.02009C21.3261 3.41413 21.3261 2.82105 21.3261 2.21509C21.3261 1.86698 20.7717 1.86698 20.7717 2.21509Z" fill="#828B99"/>
<path d="M2.64465 2.21509C2.64465 3.85248 2.64465 5.47698 2.64465 7.11437C2.64465 9.71873 2.64465 12.3231 2.64465 14.9274C2.64465 15.5334 2.64465 16.1265 2.64465 16.7324C2.64465 17.0806 3.19905 17.0806 3.19905 16.7324C3.19905 15.0951 3.19905 13.4706 3.19905 11.8332C3.19905 9.22881 3.19905 6.62444 3.19905 4.02009C3.19905 3.41413 3.19905 2.82105 3.19905 2.21509C3.19905 1.86698 2.64465 1.86698 2.64465 2.21509Z" fill="#828B99"/>
<path d="M2.29651 2.48591C4.48829 2.48591 6.68008 2.48591 8.85897 2.48591C12.3529 2.48591 15.834 2.48591 19.328 2.48591C20.1273 2.48591 20.9267 2.48591 21.7389 2.48591C22.087 2.48591 22.087 1.93151 21.7389 1.93151C19.5471 1.93151 17.3554 1.93151 15.1765 1.93151C11.6825 1.93151 8.20144 1.93151 4.70748 1.93151C3.90812 1.93151 3.10876 1.93151 2.29651 1.93151C1.93551 1.9444 1.93551 2.48591 2.29651 2.48591Z" fill="#828B99"/>
<path d="M11.7341 1.26106C11.7341 1.58339 11.7341 1.89281 11.7341 2.21513C11.7341 2.56324 12.2885 2.56324 12.2885 2.21513C12.2885 1.89281 12.2885 1.58339 12.2885 1.26106C12.2885 0.912958 11.7341 0.912958 11.7341 1.26106Z" fill="#828B99"/>
<path d="M14.7767 17.3643C14.7767 17.6737 14.7767 17.996 14.7767 18.3055C14.867 18.2152 14.9572 18.125 15.0475 18.0347C13.0104 18.0347 10.9862 18.0347 8.94916 18.0347C9.03941 18.125 9.12968 18.2152 9.21993 18.3055C9.21993 17.996 9.21993 17.6737 9.21993 17.3643C9.21993 17.0162 8.66553 17.0162 8.66553 17.3643C8.66553 17.6737 8.66553 17.996 8.66553 18.3055C8.66553 18.4602 8.79445 18.5762 8.93627 18.5762C10.9733 18.5762 12.9975 18.5762 15.0346 18.5762C15.1893 18.5762 15.3053 18.4473 15.3053 18.3055C15.3053 17.996 15.3053 17.6737 15.3053 17.3643C15.3311 17.0033 14.7767 17.0033 14.7767 17.3643Z" fill="#828B99"/>
<path d="M10.0839 18.228C9.76155 19.7236 9.42634 21.2063 9.10402 22.7018C9.02666 23.0499 9.55527 23.1918 9.63262 22.8437C9.95495 21.3481 10.2902 19.8654 10.6125 18.3698C10.6898 18.0346 10.1612 17.8928 10.0839 18.228Z" fill="#828B99"/>
<path d="M13.4102 18.3827C13.7325 19.8783 14.0677 21.361 14.39 22.8566C14.4674 23.2047 14.996 23.05 14.9186 22.7147C14.5963 21.2192 14.2611 19.7365 13.9388 18.2409C13.8614 17.8928 13.3328 18.0346 13.4102 18.3827Z" fill="#828B99"/>
<path d="M9.77441 21.2192C11.27 21.2192 12.7784 21.2192 14.274 21.2192C14.6221 21.2192 14.6221 20.6648 14.274 20.6648C12.7784 20.6648 11.27 20.6648 9.77441 20.6648C9.41341 20.6648 9.41341 21.2192 9.77441 21.2192Z" fill="#828B99"/>
</svg>
