<svg width="24" height="24" viewBox="0 0 24 24" fill="none" xmlns="http://www.w3.org/2000/svg">
<g clip-path="url(#clip0_2137_3245)">
<path d="M3.30252 17.5813C4.5696 18.8484 5.83668 20.1155 7.10376 21.3826C7.44933 21.7281 7.99967 21.1778 7.6541 20.8322C6.38703 19.5651 5.11994 18.298 3.85286 17.031C3.4945 16.6982 2.94415 17.2229 3.30252 17.5813Z" fill="#454A52"/>
<path d="M12.1199 12.0139C11.3392 12.7946 10.5584 13.5753 9.76492 14.3689C9.41936 14.7144 9.96969 15.2648 10.3153 14.9192C11.096 14.1385 11.8767 13.3578 12.6702 12.5642C13.0286 12.2059 12.4783 11.6555 12.1199 12.0139Z" fill="#454A52"/>
<path d="M16.5482 10.8621C15.7803 11.5788 14.5772 11.63 13.8092 10.8621C13.0669 10.1197 13.0669 8.86543 13.8092 8.12311C14.5388 7.39358 15.7419 7.36798 16.497 8.07192C17.3161 8.83984 17.2905 10.0685 16.5482 10.8621C16.2154 11.2204 16.7529 11.7835 17.0985 11.4124C18.0968 10.3373 18.1736 8.64786 17.0985 7.57277C16.0618 6.53607 14.3084 6.52327 13.2589 7.57277C12.2222 8.60947 12.2094 10.3629 13.2589 11.4124C14.3212 12.4747 16.0106 12.4235 17.0985 11.4124C17.4697 11.0668 16.9194 10.5165 16.5482 10.8621Z" fill="#454A52"/>
<path d="M8.46006 20.4864C10.1879 19.8081 11.8389 18.925 13.4004 17.9523C14.7442 17.1204 16.0881 16.2373 17.2528 15.2006C18.1871 14.3686 18.891 13.3063 19.4798 12.2056C20.2093 10.8874 20.7981 9.45391 21.1052 7.96925C21.3356 6.84296 21.438 5.48628 20.7341 4.50078C20.0429 3.52807 18.7887 3.32329 17.6624 3.42568C16.2033 3.55367 14.7698 4.06562 13.4644 4.67996C12.2229 5.25591 10.9942 5.97263 9.9959 6.89415C8.85681 7.93084 7.97369 9.32592 7.15457 10.6058C6.01548 12.3848 4.96599 14.2534 4.19806 16.2245C4.14687 16.3524 4.21085 16.5188 4.28765 16.5956C5.55472 17.8627 6.82181 19.1298 8.08889 20.3968C8.43445 20.7424 8.9848 20.1921 8.63923 19.8465C7.37216 18.5794 6.10507 17.3123 4.83799 16.0453C4.86359 16.1732 4.902 16.2884 4.92759 16.4164C5.56753 14.8038 6.41224 13.2679 7.30815 11.7833C8.08888 10.5162 8.908 9.26192 9.86791 8.14843C11.455 6.27981 14.0147 5.02552 16.3441 4.43678C17.3552 4.16801 18.7374 3.91203 19.6846 4.52637C20.5933 5.12792 20.5677 6.4078 20.4397 7.35491C20.2349 8.73718 19.7102 10.0554 19.083 11.2969C18.5455 12.372 17.9055 13.4727 17.048 14.3302C15.9857 15.3925 14.6802 16.2372 13.426 17.0308C11.7877 18.0803 10.0599 19.0402 8.25525 19.7441C7.7945 19.9233 7.9993 20.6656 8.46006 20.4864Z" fill="#454A52"/>
<path d="M13.1564 17.6327C13.9499 18.6822 13.8987 20.0645 12.9644 21.0244C12.734 21.2547 12.5037 21.4851 12.2605 21.7283C12.0301 21.9587 11.7485 22.3682 11.467 22.5218C11.2366 22.6498 11.2494 22.4834 11.1982 22.253C11.0958 21.8691 10.9934 21.5107 10.891 21.1268C10.7246 20.5252 10.5582 19.8981 10.3919 19.2965C10.2639 18.8102 9.52155 19.015 9.63674 19.4885C9.80312 20.0901 9.9567 20.6788 10.1231 21.2803C10.2639 21.8051 10.3407 22.5474 10.6478 23.0082C11.211 23.8529 11.9789 23.1106 12.4525 22.637C12.9644 22.1251 13.5787 21.6131 13.9755 21.0116C14.7178 19.8597 14.6411 18.3494 13.8347 17.2615C13.5276 16.852 12.8492 17.2487 13.1564 17.6327Z" fill="#454A52"/>
<path d="M5.38748 14.2919C4.78593 14.1255 4.1588 13.9592 3.55725 13.7928C3.17329 13.6904 2.81492 13.588 2.43096 13.4856C2.21338 13.4216 2.047 13.4344 2.16219 13.2168C2.32857 12.9225 2.72533 12.6537 2.9557 12.4233C3.18608 12.1929 3.41646 11.9626 3.65964 11.7194C4.61954 10.8107 5.98901 10.7467 7.05131 11.5274C7.44807 11.8218 7.83204 11.1562 7.43528 10.8619C6.48817 10.1451 5.22109 10.0043 4.13319 10.4779C3.40366 10.7979 2.86612 11.4378 2.31577 11.9882C1.86782 12.4361 1.01031 13.0377 1.41987 13.7544C1.70144 14.2407 2.58454 14.3303 3.07089 14.4583C3.77483 14.6503 4.50436 14.8423 5.20829 15.0342C5.66905 15.1622 5.87383 14.4199 5.38748 14.2919Z" fill="#454A52"/>
</g>
<defs>
<clipPath id="clip0_2137_3245">
<rect width="24" height="24" fill="white"/>
</clipPath>
</defs>
</svg>
