<svg width="24" height="24" viewBox="0 0 24 24" fill="none" xmlns="http://www.w3.org/2000/svg">
<path d="M16.9749 19.1097C16.9161 20.1428 16.1172 20.9999 15.0592 20.9999H8.58175C7.52385 20.9999 6.72493 20.1428 6.66611 19.1097L5.96368 6.77836C5.95779 6.67501 6.0389 6.58917 6.14241 6.58917H17.4986C17.6021 6.58917 17.6832 6.67501 17.6773 6.77836L16.9749 19.1097ZM15.9763 19.0549L16.6293 7.59164H7.0117L7.66467 19.0549C7.69306 19.5535 8.0611 19.9974 8.58175 19.9974H15.0592C15.5799 19.9974 15.9479 19.5535 15.9763 19.0549Z" fill="#C2C6CC"/>
<path d="M5.50124 5.75684C5.22443 5.75684 5 5.53243 5 5.2556C5 4.97876 5.22443 4.75435 5.50124 4.75435H8.4729V4.1994C8.4729 3.86905 8.60768 3.56908 8.82483 3.35193C9.04198 3.13478 9.34195 3 9.6723 3H13.9687C14.299 3 14.599 3.13478 14.8161 3.35193C15.0333 3.56908 15.1681 3.86905 15.1681 4.1994V4.75435H18.1397C18.4166 4.75435 18.641 4.97876 18.641 5.2556C18.641 5.53241 18.4166 5.75684 18.1397 5.75684H5.50124ZM9.47539 4.75435H14.1656V4.1994C14.1656 4.14577 14.1433 4.09665 14.1074 4.06073C14.0714 4.02479 14.0223 4.00249 13.9687 4.00249H9.6723C9.61867 4.00249 9.56955 4.02479 9.53363 4.06073C9.49769 4.09666 9.47539 4.14577 9.47539 4.1994V4.75435Z" fill="#C2C6CC"/>
</svg>
