<svg width="24" height="24" viewBox="0 0 24 24" fill="none" xmlns="http://www.w3.org/2000/svg">
<path d="M15.5024 22H8.4949C6.56704 22 4.99988 20.4328 4.99988 18.505V5.49503C4.99988 3.56716 6.56704 2 8.4949 2H15.5024C17.4302 2 18.9974 3.56716 18.9974 5.49503V6.69403C18.9974 6.90796 18.8233 7.08209 18.6093 7.08209C18.3954 7.08209 18.2213 6.90796 18.2213 6.69403V5.49503C18.2213 3.99503 16.9999 2.77363 15.4999 2.77363H8.49241C6.99241 2.77363 5.77102 3.99503 5.77102 5.49503V18.505C5.77102 20.005 6.99241 21.2264 8.49241 21.2264H15.4999C16.9999 21.2264 18.2213 20.005 18.2213 18.505V17.8159C18.2213 17.602 18.3954 17.4279 18.6093 17.4279C18.8233 17.4279 18.9974 17.602 18.9974 17.8159V18.505C18.9974 20.4328 17.4277 22 15.5024 22Z" fill="#828B99"/>
<path d="M18.9301 12.4826H9.53955C9.32562 12.4826 9.15149 12.3085 9.15149 12.0945C9.15149 11.8806 9.32562 11.7065 9.53955 11.7065H18.9301C19.144 11.7065 19.3181 11.8806 19.3181 12.0945C19.3181 12.3085 19.144 12.4826 18.9301 12.4826Z" fill="#828B99"/>
<path d="M15.8953 15.5175C15.7957 15.5175 15.6962 15.4801 15.6216 15.403C15.4699 15.2513 15.4699 15.0075 15.6216 14.8558L18.3828 12.0946L15.6216 9.33337C15.4699 9.18163 15.4699 8.93785 15.6216 8.78611C15.7734 8.63437 16.0171 8.63437 16.1689 8.78611L19.2037 11.8209C19.3554 11.9727 19.3554 12.2165 19.2037 12.3682L16.1689 15.403C16.0943 15.4801 15.9948 15.5175 15.8953 15.5175Z" fill="#828B99"/>
</svg>
