<svg width="24" height="24" viewBox="0 0 24 24" fill="none" xmlns="http://www.w3.org/2000/svg">
<path d="M18.3164 22H6.03635C5.46353 22 5 21.5355 5 20.9636V10.8363C5 10.2635 5.4645 9.79993 6.03635 9.79993H18.3164C18.8892 9.79993 19.3528 10.2644 19.3528 10.8363V20.9646C19.3528 21.5364 18.8892 22 18.3164 22Z" stroke="#C2C6CC" stroke-width="0.60856" stroke-miterlimit="10" stroke-linecap="round" stroke-linejoin="round"/>
<path d="M8.17346 9.79898V6.00293C8.17346 3.79263 9.96609 2 12.1764 2C13.282 2 14.2823 2.44791 15.0073 3.17297C15.7314 3.89705 16.1803 4.89827 16.1803 6.0039V9.79995" stroke="#C2C6CC" stroke-width="0.60856" stroke-miterlimit="10" stroke-linecap="round" stroke-linejoin="round"/>
<path d="M13.3316 15.4145C13.9699 14.7762 13.9699 13.7413 13.3316 13.1029C12.6933 12.4646 11.6584 12.4646 11.02 13.1029C10.3817 13.7413 10.3817 14.7762 11.02 15.4145C11.6584 16.0528 12.6933 16.0528 13.3316 15.4145Z" stroke="#C2C6CC" stroke-width="0.60856" stroke-miterlimit="10" stroke-linecap="round" stroke-linejoin="round"/>
<path d="M12.1764 15.8932V17.9708" stroke="#C2C6CC" stroke-width="0.60856" stroke-miterlimit="10" stroke-linecap="round" stroke-linejoin="round"/>
</svg>
