<svg width="24" height="24" viewBox="0 0 24 24" fill="none" xmlns="http://www.w3.org/2000/svg">
<path d="M10.5682 15.9642C11.7262 15.9642 12.8842 15.9642 14.0423 15.9642C14.3581 15.9642 14.3581 15.4612 14.0423 15.4612C12.8842 15.4612 11.7262 15.4612 10.5682 15.4612C10.2524 15.4729 10.2407 15.9642 10.5682 15.9642Z" fill="#828B99"/>
<path d="M12.0538 9.39039C12.0538 10.1039 12.0538 10.8175 12.0538 11.5427C12.0538 11.8585 12.5568 11.8585 12.5568 11.5427C12.5568 10.8292 12.5568 10.1156 12.5568 9.39039C12.5568 9.06286 12.0538 9.06286 12.0538 9.39039Z" fill="#828B99"/>
<path d="M12.0537 16.5491C12.0537 17.4848 12.0537 18.4206 12.0537 19.3564C12.0537 19.6722 12.5567 19.6722 12.5567 19.3564C12.5567 18.4206 12.5567 17.4848 12.5567 16.5491C12.5567 16.2332 12.0537 16.2332 12.0537 16.5491Z" fill="#828B99"/>
<path d="M13.3638 16.5491C13.3638 17.0988 13.3638 17.6486 13.3638 18.1984C13.3638 18.5142 13.8668 18.5142 13.8668 18.1984C13.8668 17.6486 13.8668 17.0988 13.8668 16.5491C13.8551 16.2332 13.3638 16.2332 13.3638 16.5491Z" fill="#828B99"/>
<path d="M10.7438 16.5491C10.7438 17.0988 10.7438 17.6486 10.7438 18.1984C10.7438 18.5142 11.2468 18.5142 11.2468 18.1984C11.2468 17.6486 11.2468 17.0988 11.2468 16.5491C11.2468 16.2332 10.7438 16.2332 10.7438 16.5491Z" fill="#828B99"/>
<path d="M13.551 6.8404C13.5276 7.51885 13.0012 8.09201 12.2994 8.09201C11.6209 8.09201 11.0478 7.51885 11.0478 6.8404C11.0478 6.17366 11.5859 5.61219 12.2526 5.5888C12.9778 5.5654 13.5276 6.13857 13.551 6.8404C13.5627 7.15623 14.0657 7.16793 14.054 6.8404C14.0189 5.89293 13.282 5.08582 12.2994 5.08582C11.3519 5.08582 10.5448 5.88123 10.5448 6.8404C10.5448 7.78788 11.3402 8.59499 12.2994 8.59499C13.2703 8.59499 14.0189 7.79958 14.054 6.8404C14.0657 6.51288 13.5627 6.51288 13.551 6.8404Z" fill="#828B99"/>
<path d="M14.2528 14.9349C14.7324 13.8353 15.0833 12.6773 15.3523 11.5193C15.5862 10.525 15.7968 9.50733 15.8553 8.50137C15.9021 7.69426 15.7383 6.88714 15.5044 6.11513C15.2353 5.17934 14.8493 4.25526 14.3113 3.43645C13.9018 2.81649 13.3287 2.14975 12.5566 2.02108C11.7963 1.89241 11.1296 2.372 10.6617 2.93347C10.0534 3.6587 9.63234 4.54769 9.31651 5.42498C9.01238 6.25549 8.77843 7.14448 8.74334 8.02178C8.69655 9.01604 8.9305 10.0571 9.14105 11.0163C9.43348 12.3498 9.8078 13.6833 10.3576 14.9349C10.3927 15.0167 10.4979 15.0635 10.5681 15.0635C11.7261 15.0635 12.8842 15.0635 14.0422 15.0635C14.358 15.0635 14.358 14.5605 14.0422 14.5605C12.8842 14.5605 11.7261 14.5605 10.5681 14.5605C10.6383 14.6073 10.7085 14.6424 10.7787 14.6892C10.3342 13.6599 10.0183 12.572 9.7493 11.4842C9.52706 10.5484 9.32821 9.60091 9.25802 8.65343C9.12935 7.0743 9.72591 5.33141 10.5213 3.99792C10.8605 3.41306 11.3752 2.66443 12.0888 2.51237C12.7789 2.372 13.3521 2.96856 13.7264 3.45985C14.2645 4.18508 14.6271 5.02728 14.9078 5.88118C15.1534 6.61811 15.364 7.41352 15.364 8.19724C15.364 9.16811 15.1534 10.1507 14.9429 11.0865C14.6739 12.3147 14.3229 13.5429 13.8199 14.6892C13.6913 14.9816 14.1241 15.2273 14.2528 14.9349Z" fill="#828B99"/>
<path d="M15.0952 11.4842C15.9374 11.6011 16.5457 12.2562 16.5574 13.1218C16.5574 13.3323 16.5574 13.5429 16.5574 13.7651C16.5574 13.9757 16.6159 14.2915 16.5574 14.4904C16.5106 14.6541 16.4404 14.5722 16.3117 14.4904C16.0895 14.3617 15.8789 14.2447 15.6567 14.116C15.3058 13.9172 14.9431 13.7066 14.5922 13.5078C14.3115 13.344 14.0659 13.7768 14.3349 13.9406C14.6858 14.1394 15.025 14.3383 15.3759 14.5371C15.6801 14.7126 16.0544 15.0167 16.4053 15.0869C17.0487 15.2156 17.0604 14.5255 17.0604 14.0927C17.0604 13.6248 17.1071 13.1101 17.0136 12.6539C16.8264 11.7883 16.1012 11.1332 15.2356 11.0046C14.9081 10.9578 14.7794 11.4491 15.0952 11.4842Z" fill="#828B99"/>
<path d="M10.0185 13.5078C9.66759 13.7067 9.30498 13.9172 8.95406 14.1161C8.73181 14.2447 8.52125 14.3617 8.299 14.4904C8.17033 14.5605 8.10015 14.6424 8.05336 14.4904C7.99487 14.2798 8.05336 13.9757 8.05336 13.7651C8.05336 13.5546 8.05336 13.344 8.05336 13.1218C8.07676 12.2679 8.67332 11.6128 9.51552 11.4842C9.83134 11.4374 9.70268 10.9578 9.38685 11.0046C8.62653 11.1099 7.98318 11.6245 7.70244 12.3381C7.51529 12.8177 7.56208 13.3557 7.56208 13.8587C7.56208 14.2681 7.44511 14.9349 7.95979 15.0752C8.31071 15.1688 8.7552 14.8062 9.03593 14.6424C9.44534 14.4085 9.86644 14.1628 10.2758 13.9289C10.5449 13.7768 10.2992 13.344 10.0185 13.5078Z" fill="#828B99"/>
<path d="M8.90743 20.7835C8.19389 19.6606 8.94251 18.1984 10.2877 18.175C10.6035 18.1633 10.6152 17.672 10.2877 17.672C8.5799 17.7188 7.56225 19.5787 8.48633 21.0409C8.65009 21.3099 9.08289 21.0643 8.90743 20.7835Z" fill="#828B99"/>
<path d="M5.50335 21.7544C5.52675 20.2454 6.91872 19.1927 8.38088 19.5202C8.6967 19.5904 8.82537 19.1108 8.50954 19.0406C6.73156 18.6312 5.03546 19.9179 5.00037 21.7544C5.00037 22.0819 5.50335 22.0819 5.50335 21.7544Z" fill="#828B99"/>
<path d="M16.1244 21.0408C17.0485 19.5903 16.0192 17.7188 14.3231 17.672C14.0072 17.6603 14.0072 18.1633 14.3231 18.175C15.6682 18.2101 16.4169 19.6605 15.7033 20.7835C15.5279 21.0642 15.9607 21.3098 16.1244 21.0408Z" fill="#828B99"/>
<path d="M16.2295 19.5202C17.6917 19.181 19.072 20.2454 19.1071 21.7543C19.1188 22.0702 19.61 22.0819 19.61 21.7543C19.5749 19.9179 17.8788 18.6312 16.1008 19.0406C15.7733 19.1108 15.9137 19.6021 16.2295 19.5202Z" fill="#828B99"/>
</svg>
