<svg width="24" height="24" viewBox="0 0 24 24" fill="none" xmlns="http://www.w3.org/2000/svg">
<path d="M15.294 18.4049C15.7345 18.1446 16.1148 17.8643 16.4752 17.5439L18.9579 18.5851C19.8988 17.5239 20.5996 16.2826 21 14.9612L18.8377 13.3595C19.0179 12.3985 19.0179 11.3975 18.8177 10.4365L20.96 8.81475C20.7397 8.17407 20.4594 7.5334 20.0991 6.91274C19.7387 6.29209 19.3182 5.73149 18.8578 5.23097L16.3951 6.31211C15.6343 5.65141 14.7734 5.17092 13.8525 4.8706L13.5121 2.20779C12.1507 1.92749 10.7492 1.92749 9.34773 2.2278L9.04742 4.91063C8.58693 5.0708 8.14648 5.27101 7.70601 5.53128C7.26555 5.79156 6.88512 6.07186 6.52474 6.3922L4.04214 5.35109C3.10115 6.41221 2.40042 7.65353 2 8.97493L4.16224 10.5766C3.98205 11.5376 3.98207 12.5387 4.18228 13.4997L2.04003 15.1214C2.26026 15.7621 2.54057 16.4027 2.90095 17.0234C3.26133 17.6441 3.68176 18.2046 4.14225 18.7052L6.60485 17.624C7.36565 18.2847 8.22655 18.7652 9.14752 19.0655L9.48787 21.7284C10.8493 22.0086 12.2508 22.0087 13.6523 21.7083L13.9526 19.0255C14.4131 18.8653 14.8535 18.6651 15.294 18.4049ZM8.42674 13.7599C7.42569 12.0582 8.00631 9.87587 9.68808 8.89484C11.3899 7.89378 13.5722 8.47438 14.5532 10.1562C15.5543 11.8579 14.9737 14.0403 13.2919 15.0213C11.6101 16.0223 9.4278 15.4417 8.42674 13.7599Z" stroke="#828B99" stroke-width="0.800844" stroke-miterlimit="10" stroke-linecap="round" stroke-linejoin="round"/>
</svg>
