<svg width="60" height="60" viewBox="0 0 60 60" fill="none" xmlns="http://www.w3.org/2000/svg">
<path d="M52.183 31.4431C52.2412 31.0522 52.2744 30.6863 52.2744 30.3121C52.2744 26.0377 48.9314 22.4867 44.7152 22.1624C42.1123 18.2955 37.8378 16.0002 33.1726 16.0002C28.499 16.0002 24.1164 18.3869 21.5468 22.2705C15.9335 21.3142 10.9854 25.4306 10.4449 30.7612C6.86902 30.8693 4 33.8214 4 37.4306C4 41.1063 6.98545 44.1 10.6528 44.1H22.8857C23.4345 44.1 23.8753 43.6593 23.8753 43.1104C23.8753 42.5616 23.4345 42.1208 22.8857 42.1208H10.6528C8.07484 42.1208 5.97921 40.0169 5.97921 37.4223C5.97921 34.836 8.07484 32.7237 10.6528 32.7237H11.3846C11.9335 32.7237 12.3742 32.283 12.3742 31.7341C12.3742 26.9358 16.79 23.0605 21.788 24.3246C22.2204 24.4327 22.6611 24.2414 22.8773 23.8672C25.0146 20.2248 28.9647 17.9628 33.1726 17.9628C37.3306 17.9628 41.1227 20.0834 43.3264 23.6343C43.501 23.9254 43.8171 24.1 44.158 24.1C47.5509 24.1333 50.3035 26.9108 50.3035 30.2955C50.3035 30.7528 50.237 31.2269 50.0956 31.7923C49.9709 32.2913 50.2536 32.8069 50.7443 32.9732C52.7152 33.6135 54.0291 35.4015 54.0291 37.4223C54.0291 40.0086 51.9252 42.1208 49.3306 42.1208H39.0852C38.5364 42.1208 38.0956 42.5616 38.0956 43.1104C38.0956 43.6593 38.5364 44.1 39.0852 44.1H49.3306C53.0062 44.1 56 41.1063 56 37.4306C56 34.8526 54.4948 32.5408 52.183 31.4431Z" fill="#454A52"/>
<path d="M31.6845 27.5094C31.5931 27.418 31.4849 27.3431 31.3602 27.2932C31.119 27.1934 30.8446 27.1934 30.6035 27.2932C30.4787 27.3431 30.3706 27.418 30.2791 27.5094L24.5162 33.2808C24.1336 33.6633 24.1336 34.287 24.5162 34.6778C24.7074 34.8691 24.9652 34.9689 25.2147 34.9689C25.4642 34.9689 25.722 34.8691 25.9132 34.6778L29.9964 30.5947V43.1269C29.9964 43.6758 30.4371 44.1165 30.986 44.1165C31.5348 44.1165 31.9756 43.6758 31.9756 43.1269V30.5864L36.0588 34.6695C36.25 34.8608 36.5078 34.9606 36.7573 34.9606C37.0068 34.9606 37.2646 34.8608 37.4558 34.6695C37.8384 34.287 37.8384 33.6633 37.4558 33.2724L31.6845 27.5094Z" fill="#454A52"/>
</svg>
