<svg width="24" height="24" viewBox="0 0 24 24" fill="none" xmlns="http://www.w3.org/2000/svg">
<path d="M20.4016 12.9822L17.8367 8.71254H16.9828V12.9822H20.4016ZM9.1223 11.5683C8.94401 11.5683 8.797 11.4245 8.797 11.243C8.797 11.0647 8.94088 10.9177 9.1223 10.9177H14.1739C14.3522 10.9177 14.4961 11.0616 14.4961 11.243C14.4961 11.4213 14.3522 11.5683 14.1739 11.5683H9.1223ZM9.1223 7.85549C8.94401 7.85549 8.797 7.7116 8.797 7.53018C8.797 7.35189 8.94088 7.20488 9.1223 7.20488H14.1739C14.3522 7.20488 14.4961 7.34876 14.4961 7.53018C14.4961 7.70848 14.3522 7.85549 14.1739 7.85549H9.1223ZM9.1223 9.71348C8.94401 9.71348 8.797 9.5696 8.797 9.38818C8.797 9.20988 8.94088 9.06287 9.1223 9.06287H14.1739C14.3522 9.06287 14.4961 9.20676 14.4961 9.38818C14.4961 9.56647 14.3522 9.71348 14.1739 9.71348H9.1223ZM14.0582 2.09697L16.8858 4.92462L16.8921 4.93087L16.8983 4.93713L16.9015 4.94026L16.9046 4.94651L16.9077 4.94964L16.9109 4.95277L16.914 4.9559L16.9171 4.95902L16.9202 4.96528L16.9234 4.96841L16.9265 4.97154L16.9296 4.97466L16.9327 4.97779L16.9359 4.98092L16.939 4.98405L16.9421 4.98718L16.9453 4.9903L16.9484 4.99343L16.9515 4.99656L16.9546 4.99969L16.9578 5.00281L16.9609 5.00594L16.964 5.00907L16.9672 5.0122L16.9703 5.01533L16.9734 5.01845V5.02158L16.9765 5.02471L16.9797 5.03409L16.9828 5.03722V5.04035L16.9859 5.04348V5.04661L16.9891 5.04973V5.05286L16.9953 5.07476V5.07789V5.08101V5.08414V5.08727L16.9984 5.10916V5.11229V5.11855V5.13419V5.14357V8.05255H18.0369C18.1464 8.05255 18.2527 8.10885 18.3122 8.21207L21.2524 13.1104V13.1135L21.2556 13.1167L21.2587 13.1198V13.1229L21.2618 13.1261V13.1292L21.2649 13.1323L21.2681 13.1354L21.2712 13.1386L21.2743 13.1417V13.1448L21.2774 13.148L21.2806 13.1511V13.1542L21.2837 13.1573V13.1605L21.2868 13.1636V13.1667V13.1698L21.29 13.173V13.1761V13.1792L21.2931 13.1824V13.1855V13.1886L21.2962 13.1917L21.2993 13.198V13.2011L21.3025 13.2043V13.2074V13.2105V13.2136V13.2168V13.2199V13.223V13.2261V13.2293V13.2324V13.2355V13.2387V13.2418V13.2449V13.248V13.2512V13.2543V13.2574V13.2606V13.2637V13.2668V13.2699V13.2731V13.2762V13.2793V13.2825V13.2856V13.2887V13.2918V13.295V13.2981V13.3012V13.3043V13.3075V13.3106V13.3137V13.3169V21.6747C21.3025 21.853 21.1586 22 20.9772 22H2.3253C2.14701 22 2 21.8561 2 21.6747V13.3075C2 13.2387 2.0219 13.173 2.06256 13.1198L4.98718 8.24648C5.04035 8.14013 5.14983 8.06506 5.27807 8.06506H6.31342V2.3253C6.31342 2.14701 6.4573 2 6.63872 2H13.8267H13.8361H13.8517H13.858H13.8611H13.8674L13.883 2.00313H13.8861H13.8893H13.8924H13.8955H13.8987L13.9018 2.00626H13.9049H13.908L13.9143 2.00938L13.9174 2.01251H13.9205H13.9237L13.9268 2.01564H13.9299L13.9331 2.01877H13.9362L13.9393 2.02189L13.9424 2.02502H13.9456L13.9487 2.02815H13.9518L13.955 2.03128L13.9581 2.03441L13.9612 2.03753L13.9643 2.04066L13.9675 2.04379L13.9706 2.04692L13.9737 2.05005L13.98 2.05317L13.9831 2.0563L13.9862 2.05943L13.9894 2.06256L13.9925 2.06569L14.0113 2.0782L14.0144 2.08133L14.0175 2.08445L14.0269 2.09384L14.0582 2.09697ZM15.8724 4.83078L14.152 3.11042V4.83078H15.8724ZM9.38818 14.8433C9.27557 14.8433 9.17548 14.7839 9.11605 14.6963L8.29653 13.6328H6.64185H2.65061V21.34H20.6456V13.6297H16.6575H15.0028L14.1833 14.6931C14.1239 14.7807 14.0238 14.8402 13.9112 14.8402H9.38818V14.8433ZM13.5045 2.65061H6.96716V8.38724V12.9822H8.45605C8.56866 12.9822 8.66875 13.0416 8.72818 13.1292L9.5477 14.1927H13.7548L14.5743 13.1292C14.6306 13.0416 14.7307 12.9822 14.8464 12.9822H16.3353V8.38724V5.47826H13.8298C13.6515 5.47826 13.5045 5.33438 13.5045 5.15296V2.65061ZM2.89772 12.9822H6.31655V8.71254H5.46262L2.89772 12.9822Z" fill="#C2C6CC"/>
</svg>
