<svg width="25" height="24" viewBox="0 0 25 24" fill="none" xmlns="http://www.w3.org/2000/svg">
<path d="M20.5722 16.3685C19.8395 15.9311 19.3345 15.1984 19.1638 14.3626L18.0648 9.09178C17.5562 6.50259 15.28 4.60693 12.6055 4.60693C9.93446 4.60693 7.65825 6.50259 7.1461 9.09178L6.05067 14.3484C5.8764 15.1878 5.37136 15.9275 4.63871 16.365C4.01986 16.7349 3.6073 17.4106 3.6073 18.1824C3.6073 18.9613 4.03765 19.6299 4.66716 19.9927C4.9837 20.1741 5.34291 20.2594 5.70568 20.2594H19.4945C20.0316 20.2594 20.5544 20.0638 20.9492 19.6975C21.3617 19.3098 21.6143 18.7657 21.6072 18.154C21.5929 17.3964 21.1839 16.7349 20.5722 16.3685Z" stroke="#454A52" stroke-width="0.6" stroke-miterlimit="10" stroke-linecap="round" stroke-linejoin="round"/>
<path d="M9.63226 20.2665C10.0875 21.5291 11.247 22.4289 12.6056 22.4289C13.9677 22.4289 15.1272 21.5291 15.5789 20.2629L9.63226 20.2665Z" stroke="#454A52" stroke-width="0.6" stroke-miterlimit="10" stroke-linecap="round" stroke-linejoin="round"/>
<path d="M11.1969 4.78836C10.9799 4.49672 10.8555 4.13751 10.8555 3.74984C10.8555 2.78245 11.6379 2 12.6053 2C13.5727 2 14.3551 2.78245 14.3551 3.74984C14.3551 4.14106 14.2271 4.50028 14.0137 4.78836" stroke="#454A52" stroke-width="0.6" stroke-miterlimit="10" stroke-linecap="round" stroke-linejoin="round"/>
</svg>
