<svg width="61" height="60" viewBox="0 0 61 60" fill="none" xmlns="http://www.w3.org/2000/svg">
<path d="M38.7489 44.0099V25.0049C38.7489 24.2933 38.172 23.7164 37.4604 23.7164H7.82558C7.11398 23.7164 6.53711 24.2933 6.53711 25.0049V44.0099" stroke="#454A52"/>
<path d="M7.75243 49.1638H37.3463C37.4206 49.1638 37.4919 49.1388 37.5486 49.0906C37.9092 48.7847 39.2759 47.585 39.555 46.7479C39.789 46.0464 39.7681 45.0903 39.7391 44.6189C39.7291 44.4551 39.5919 44.332 39.4278 44.332H25.2721C25.1433 44.332 25.0268 44.4088 24.976 44.5273L24.6602 45.2642C24.6095 45.3827 24.493 45.4594 24.3641 45.4594H20.737C20.6214 45.4594 20.5147 45.3975 20.4573 45.2971L19.9986 44.4943C19.9412 44.394 19.8345 44.332 19.7189 44.332H5.85095C5.69065 44.332 5.55567 44.4495 5.54125 44.6091C5.50403 45.0214 5.45873 45.8451 5.57158 46.7479C5.71379 47.8856 7.23718 48.8977 7.59185 49.119C7.64024 49.1492 7.6954 49.1638 7.75243 49.1638Z" stroke="#454A52"/>
<rect x="43.7588" y="37.1012" width="9.30777" height="16.7165" rx="0.788472" stroke="#454A52"/>
<path d="M20.3887 23.2333V7.28847C20.3887 6.57687 20.9655 6 21.6771 6H54.2111C54.9227 6 55.4995 6.57687 55.4995 7.28847V25.6492C55.4995 26.3608 54.9227 26.9377 54.2111 26.9377H38.9998" stroke="#454A52"/>
<path d="M48.7348 33.88C49.0109 33.88 49.2348 33.6561 49.2348 33.38C49.2348 33.1039 49.0109 32.88 48.7348 32.88V33.88ZM38.9102 33.88H48.7348V32.88H38.9102V33.88Z" fill="#454A52"/>
<path d="M42.9367 33.2189L41.165 26.9376" stroke="#454A52"/>
</svg>
