<svg width="18" height="21" viewBox="0 0 18 21" fill="none" xmlns="http://www.w3.org/2000/svg">
<circle cx="7.72999" cy="4.80952" r="4.10952" stroke="#454A52" stroke-width="0.6"/>
<path fill-rule="evenodd" clip-rule="evenodd" d="M7.41276 19.4475C4.92235 19.4475 2.61389 18.6754 0.711635 17.3574C0.711087 17.2054 0.711084 17.0444 0.711084 16.873C0.711084 13.1718 3.71148 10.1714 7.41266 10.1714C8.55174 10.1714 9.62393 10.4553 10.563 10.9564C10.803 10.852 11.0523 10.765 11.3094 10.6971C10.1818 9.98409 8.84543 9.57141 7.41266 9.57141C3.38011 9.57141 0.111084 12.8404 0.111084 16.873C0.111084 17.1626 0.111084 17.427 0.113789 17.6683C2.16039 19.1644 4.68344 20.0475 7.41276 20.0475C8.09637 20.0475 8.76705 19.9921 9.42054 19.8856C9.21607 19.7252 9.02382 19.5499 8.84543 19.3613C8.37587 19.4182 7.89777 19.4475 7.41276 19.4475Z" fill="#454A52"/>
<g clip-path="url(#clip0_2029_2006)">
<path d="M9.76453 15.7886H15.5906" stroke="#454A52" stroke-width="0.6" stroke-linecap="round"/>
<path d="M12.6775 18.7017V12.8756" stroke="#454A52" stroke-width="0.6" stroke-linecap="round"/>
</g>
<circle cx="12.6509" cy="15.7618" r="4.9381" stroke="#454A52" stroke-width="0.6"/>
<defs>
<clipPath id="clip0_2029_2006">
<rect width="6.84159" height="6.84159" fill="white" transform="translate(9.22998 12.3411)"/>
</clipPath>
</defs>
</svg>
