<svg width="61" height="60" viewBox="0 0 61 60" fill="none" xmlns="http://www.w3.org/2000/svg">
<path d="M21.8389 20.6823C21.8389 16.7802 29.6434 15.561 29.6434 21.6582C29.6434 23.1216 27.4484 25.0727 25.4972 26.536V28.7306" stroke="#454A52"/>
<circle cx="25.7453" cy="32.6334" r="1.20724" stroke="#454A52"/>
<path d="M6 8.5H46.4615V40.6692H19.1026C18.8568 40.6692 18.6199 40.7608 18.4381 40.926L18.7745 41.296L18.4381 40.926L12.707 46.1362V41.6569C12.707 41.1114 12.2648 40.6692 11.7192 40.6692H6V8.5Z" stroke="#454A52"/>
<path d="M24.0381 41.4133V47.9984C24.0381 48.2678 24.2565 48.4861 24.5259 48.4861H45.0711C45.1906 48.4861 45.3059 48.53 45.3952 48.6093L48.8348 51.6668C49.1494 51.9464 49.6466 51.7231 49.6466 51.3022V48.4861C49.6466 48.2167 49.865 47.9984 50.1344 47.9984H55.0122C55.2816 47.9984 55.5 47.78 55.5 47.5106V24.5848C55.5 24.3154 55.2816 24.097 55.0122 24.097H46.9638" stroke="#454A52"/>
</svg>
