<svg width="61" height="60" viewBox="0 0 61 60" fill="none" xmlns="http://www.w3.org/2000/svg">
<path d="M52.5631 32.1429C52.5631 37.8122 46.0436 49.1062 31.2289 54.864C31.0029 54.9519 30.7451 54.952 30.5184 54.8658C14.4337 48.7504 9.18268 38.8468 8.66699 32.1429V12.1173C8.66699 11.6711 8.9626 11.2789 9.39153 11.156L30.596 5.07988C30.7781 5.0277 30.9713 5.02831 31.153 5.08164L51.8446 11.1528C52.2705 11.2778 52.5631 11.6685 52.5631 12.1124V32.1429Z" stroke="#454A52"/>
<path d="M20.5947 22.7533C20.5947 22.4772 20.8186 22.2533 21.0947 22.2533H39.874C40.1501 22.2533 40.374 22.4772 40.374 22.7533V41.013C40.374 41.2892 40.1501 41.513 39.874 41.513H21.0947C20.8186 41.513 20.5947 41.2892 20.5947 41.013V22.7533Z" stroke="#454A52" stroke-linejoin="round"/>
<path d="M36.9792 22.2727C36.9792 18.6864 34.072 15.7792 30.4857 15.7792C26.8994 15.7792 23.9922 18.6864 23.9922 22.2727" stroke="#454A52"/>
<circle cx="30.6158" cy="30.1948" r="3.52597" stroke="#454A52"/>
<path d="M30.7451 38.6364L30.7451 33.7013" stroke="#454A52"/>
</svg>
