<svg width="61" height="60" viewBox="0 0 61 60" fill="none" xmlns="http://www.w3.org/2000/svg">
<path d="M30.5009 32.0266L12.6626 32.0266C12.0655 32.0266 11.5815 32.5106 11.5815 33.1077L11.5815 44.189" stroke="#454A52" stroke-linecap="square"/>
<path d="M30.5001 32.0266L48.3384 32.0266C48.9355 32.0266 49.4195 32.5106 49.4195 33.1077L49.4195 44.189" stroke="#454A52" stroke-linecap="square"/>
<path d="M30.5 17.1613L30.5 27.3306L30.5 44.189" stroke="#454A52" stroke-linecap="square"/>
<circle cx="5.40554" cy="5.40554" r="4.90554" transform="matrix(1 0 0 -1 6.17578 55)" stroke="#454A52"/>
<circle cx="5.40554" cy="5.40554" r="4.90554" transform="matrix(1 0 0 -1 25.0938 55)" stroke="#454A52"/>
<circle cx="5.40554" cy="5.40554" r="4.90554" transform="matrix(1 0 0 -1 44.0137 55)" stroke="#454A52"/>
<circle cx="5.40554" cy="5.40554" r="4.90554" transform="matrix(1 0 0 -1 25.0938 17.1613)" stroke="#454A52"/>
</svg>
